<?xml version="1.0" encoding="iso-8859-1"?>
<!-- Uploaded to: SVG Repo, www.svgrepo.com, Generator: SVG Repo Mixer Tools -->
<svg height="800px" width="800px" version="1.1" id="Layer_1" xmlns="http://www.w3.org/2000/svg" xmlns:xlink="http://www.w3.org/1999/xlink" 
	 viewBox="0 0 511.998 511.998" xml:space="preserve">
<path style="fill:#FFDB6C;" d="M360.517,421.976H150.171c-6.491,0-11.753,5.262-11.753,11.753v31.119
	c0,6.491,5.262,11.753,11.753,11.753h210.346c6.491,0,11.753-5.262,11.753-11.753v-31.119
	C372.27,427.238,367.008,421.976,360.517,421.976z"/>
<path style="fill:#FFB966;" d="M360.517,421.976h-34.293c6.491,0,11.753,5.262,11.753,11.753v31.119
	c0,6.491-5.262,11.753-11.753,11.753h34.293c6.491,0,11.753-5.262,11.753-11.753v-31.119
	C372.27,427.238,367.008,421.976,360.517,421.976z"/>
<g>
	<circle style="fill:#FFDB6C;" cx="26.436" cy="370.758" r="18.209"/>
	<circle style="fill:#FFDB6C;" cx="39.89" cy="225.125" r="18.209"/>
</g>
<g>
	<path style="fill:#FFB966;" d="M40.059,206.92c4.918,3.26,8.166,8.839,8.166,15.182c0,10.056-8.152,18.209-18.209,18.209
		c-0.056,0-0.111-0.008-0.167-0.009c2.88,1.908,6.33,3.027,10.043,3.027c10.056,0,18.209-8.152,18.209-18.209
		C58.101,215.119,50.038,207.011,40.059,206.92z"/>
	<path style="fill:#FFB966;" d="M26.605,352.549c4.918,3.26,8.166,8.839,8.166,15.182c0,10.056-8.152,18.209-18.209,18.209
		c-0.056,0-0.111-0.008-0.167-0.009c2.88,1.908,6.33,3.027,10.043,3.027c10.056,0,18.209-8.152,18.209-18.209
		C44.647,360.75,36.583,352.64,26.605,352.549z"/>
	<path style="fill:#FFB966;" d="M485.728,351.589c4.918,3.26,8.166,8.839,8.166,15.182c0,10.056-8.152,18.209-18.209,18.209
		c-0.056,0-0.111-0.008-0.167-0.009c2.88,1.908,6.33,3.027,10.043,3.027c10.056,0,18.209-8.152,18.209-18.209
		C503.77,359.789,495.707,351.679,485.728,351.589z"/>
</g>
<g>
	<circle style="fill:#7C54B8;" cx="170.883" cy="449.286" r="8.23"/>
	<circle style="fill:#7C54B8;" cx="203.969" cy="449.286" r="8.23"/>
	<circle style="fill:#7C54B8;" cx="237.055" cy="449.286" r="8.23"/>
	<circle style="fill:#7C54B8;" cx="270.141" cy="449.286" r="8.23"/>
	<circle style="fill:#7C54B8;" cx="303.227" cy="449.286" r="8.23"/>
	<circle style="fill:#7C54B8;" cx="336.313" cy="449.286" r="8.23"/>
</g>
<path style="fill:#3CC247;" d="M297.247,190.479C284.845,124.708,246.669,85.984,182.806,59.68
	c-8.836-3.64-16.594,6.902-10.551,14.305c19.225,23.551,30.248,53.95,28.925,86.716c-0.404,10.009-1.927,19.41-4.443,28.17v55.034
	h100.511V190.479z"/>
<path style="fill:#2DA85F;" d="M293.893,175.728c-7.091,2.02-14.087,4.473-20.949,7.357c-5.095,2.141-10.794-0.967-12.031-6.353
	c-0.009-0.037-0.016-0.074-0.025-0.111c-12.209-52.758-42.257-87.241-90.088-111.874c-1.167,2.85-0.953,6.292,1.453,9.239
	c19.225,23.551,30.248,53.95,28.925,86.716c-0.404,10.009-1.927,19.41-4.443,28.17v49.717h34.395v5.318h66.119V190.48
	C296.291,185.397,295.16,180.494,293.893,175.728z"/>
<path style="fill:#FC4C59;" d="M334.586,289.013v132.962h-85.352V217.368c55.581-43.074,129.54-50.219,191.148-22.219
	c9.657,4.388,7.12,18.726-3.455,19.566c-27.144,2.157-53.749,13.286-75.02,33.511C348.907,260.587,339.916,274.428,334.586,289.013"
	/>
<path style="fill:#E83A64;" d="M328.738,217.689c-5.596,2.579-11.244,5.667-16.636,9.216c-11.021,7.253-25.663,4.99-34.448-4.853
	c-4.515-5.059-9.404-9.857-14.662-14.353c-4.69,2.999-9.29,6.205-13.759,9.668v193.086l28.765,11.522h56.587V289.013
	c5.331-14.584,14.321-28.425,27.322-40.787c21.27-20.225,47.876-31.352,75.02-33.511c4.406-0.35,7.411-3.046,8.724-6.388
	C404.387,195.956,364.129,201.381,328.738,217.689z"/>
<path style="fill:#FD4DD7;" d="M302.367,305.959c-8.046-39.212-30.92-75.252-66.945-98.748
	c-55.057-35.909-124.205-32.545-174.785,2.914c-7.429,5.208-2.972,16.902,6.054,15.968c22.38-2.314,45.668,2.648,66.092,15.721
	c17.978,11.508,29.768,26.761,35.866,43.858l2.071,25.297v111.009h131.65V305.959"/>
<path style="fill:#E846AA;" d="M295.45,282.048c-13.516,8.575-25.544,19.282-35.619,31.644c-2.912,3.574-8.002,4.475-11.989,2.159
	l0,0c-2.377-1.382-4.028-3.733-4.519-6.438c-4.835-26.718-18.459-51.977-38.771-73.342
	c-37.617-39.566-100.747-36.326-147.203-16.082c1.193,3.656,4.646,6.589,9.34,6.103c22.38-2.314,45.668,2.648,66.092,15.721
	c17.978,11.508,29.767,26.761,35.864,43.858l2.071,25.297v111.009h56.557h18.012h57.081V305.959
	C300.697,297.823,298.381,289.827,295.45,282.048z"/>
<path style="fill:#674799;" d="M158.476,421.976h97.157v-22.04c0-63.593-50.851-116.266-114.442-116.809
	c-45.725-0.39-85.368,25.807-104.411,64.063c-3.858,7.751,5.125,15.742,12.359,10.984c12.018-7.903,26.403-12.502,41.863-12.502
	C133.145,345.671,158.476,379.834,158.476,421.976z"/>
<path style="fill:#7C54B8;" d="M116.945,322.214c-29.54-0.252-59.094,15.412-79.642,33.435c2.418,3.6,7.447,5.411,11.836,2.524
	c12.018-7.903,26.403-12.502,41.863-12.502c42.142,0,67.473,34.162,67.473,76.305h49.002
	C212.199,360.074,173.078,322.693,116.945,322.214z"/>
<path style="fill:#3CC247;" d="M352.294,421.976h-96.901v-22.04c0-63.593,50.851-116.266,114.442-116.809
	c45.725-0.39,85.368,25.807,104.411,64.063c3.858,7.751-5.126,15.742-12.359,10.984c-12.018-7.903-26.403-12.502-41.863-12.502
	C377.881,345.671,352.294,379.834,352.294,421.976z"/>
<path style="fill:#2DA85F;" d="M384.584,318.574c-58.359,11.504-80.936,45.978-87.485,103.401h55.195
	c0-42.142,25.587-76.305,67.729-76.305c15.46,0,29.845,4.599,41.863,12.502c3.535,2.324,7.483,1.601,10.151-0.646
	C450.682,333.408,418.746,311.841,384.584,318.574z"/>
<circle style="fill:#FFDB6C;" cx="156.167" cy="53.62" r="18.209"/>
<path style="fill:#FFB966;" d="M156.343,35.407c4.918,3.26,8.166,8.839,8.166,15.182c0,10.056-8.152,18.209-18.209,18.209
	c-0.056,0-0.111-0.008-0.167-0.009c2.88,1.908,6.33,3.027,10.043,3.027c10.056,0,18.209-8.152,18.209-18.209
	C174.385,43.606,166.321,35.498,156.343,35.407z"/>
<circle style="fill:#FFDB6C;" cx="464.618" cy="206.92" r="18.209"/>
<path style="fill:#FFB966;" d="M464.781,188.72c4.918,3.26,8.166,8.839,8.166,15.182c0,10.056-8.152,18.209-18.209,18.209
	c-0.056,0-0.111-0.008-0.167-0.009c2.88,1.908,6.33,3.027,10.043,3.027c10.056,0,18.209-8.152,18.209-18.209
	C482.823,196.919,474.759,188.811,464.781,188.72z"/>
<circle style="fill:#FFDB6C;" cx="485.566" cy="369.792" r="18.209"/>
<path d="M485.562,343.35c-1.323,0-2.625,0.101-3.897,0.29c-0.019-0.038-0.033-0.079-0.053-0.117
	c-10.179-20.451-25.81-37.682-45.199-49.83c-19.945-12.497-43.003-19.022-66.65-18.794c-6.922,0.059-13.708,0.709-20.321,1.886
	c4.757-8.078,10.821-15.638,18.136-22.594c19.024-18.089,43.884-29.195,70-31.27c1.818-0.145,3.547-0.549,5.169-1.157
	c4.763,6.992,12.786,11.595,21.865,11.595c14.579,0,26.439-11.86,26.439-26.439s-11.86-26.438-26.439-26.438
	c-7.471,0-14.222,3.12-19.035,8.118c-0.577-0.339-1.169-0.661-1.792-0.944c-44.206-20.091-94.729-22.645-140.432-7.991
	c-6.932-29.71-19.372-54.295-37.914-74.893C246.223,83.43,220.22,66.19,185.94,52.07c-1.136-0.467-2.289-0.797-3.445-1.022
	c-0.291-2.956-1.085-5.873-2.382-8.643c-2.995-6.396-8.303-11.242-14.943-13.645c-6.64-2.404-13.82-2.078-20.214,0.917
	c-6.396,2.996-11.24,8.303-13.645,14.943c-2.404,6.64-2.078,13.819,0.917,20.214c2.996,6.394,8.302,11.242,14.943,13.645
	c2.938,1.063,5.981,1.592,9.015,1.592c3.089,0,6.167-0.559,9.116-1.65c0.189,0.257,0.372,0.517,0.576,0.767
	c18.651,22.85,28.267,51.68,27.076,81.179c-0.253,6.289-1.001,12.419-2.206,18.322c-14.466-3.689-29.44-5.408-44.61-5.014
	c-32.495,0.836-63.696,11.109-90.226,29.708c-0.168,0.117-0.322,0.248-0.485,0.37c-4.364-3.181-9.733-5.064-15.536-5.064
	c-14.579,0-26.439,11.86-26.439,26.439s11.86,26.438,26.439,26.438c11.339,0,21.03-7.176,24.779-17.223
	c0.939,0.055,1.897,0.035,2.865-0.066c21.522-2.223,42.546,2.776,60.807,14.466c11.495,7.358,20.405,16.429,26.643,27.054
	c-4.507-0.549-9.085-0.859-13.725-0.899c-0.357-0.003-0.713-0.004-1.07-0.004c-23.283,0-45.937,6.49-65.582,18.799
	c-19.388,12.148-35.017,29.379-45.198,49.83c-0.151,0.305-0.282,0.615-0.414,0.924c-0.843-0.081-1.697-0.126-2.561-0.126
	C11.86,344.319,0,356.18,0,370.758c0,14.578,11.86,26.438,26.439,26.438c14.578,0,26.438-11.86,26.438-26.438
	c0-1.694-0.167-3.349-0.473-4.956c0.426-0.232,0.846-0.481,1.259-0.753c11.09-7.293,24.002-11.148,37.339-11.148
	c17.617,0,32.569,6.713,43.238,19.413c8.817,10.495,14.236,24.643,15.632,40.447c-10.88,0.162-19.685,9.05-19.685,19.968v31.118
	c0,11.019,8.964,19.983,19.983,19.983h210.346c11.019,0,19.983-8.964,19.983-19.983v-31.118c0-10.89-8.759-19.757-19.601-19.963
	c1.407-15.781,6.864-29.923,15.742-40.434c10.738-12.711,25.739-19.43,43.38-19.43c13.337,0,26.25,3.855,37.34,11.148
	c0.653,0.429,1.328,0.796,2.013,1.125c-0.162,1.183-0.253,2.388-0.253,3.614c0,14.579,11.86,26.438,26.439,26.438
	c14.579,0,26.439-11.86,26.439-26.438S500.141,343.35,485.562,343.35z M464.614,196.943c5.502,0,9.978,4.476,9.978,9.977
	c0,5.501-4.476,9.978-9.978,9.978c-5.502,0-9.977-4.476-9.977-9.978C454.637,201.418,459.112,196.943,464.614,196.943z
	 M152.775,63.002c-2.506-0.908-4.509-2.736-5.639-5.149c-1.13-2.413-1.254-5.123-0.347-7.629s2.736-4.509,5.15-5.639
	c1.345-0.63,2.782-0.947,4.226-0.947c1.146,0,2.295,0.2,3.403,0.601c2.506,0.908,4.509,2.736,5.639,5.149
	c1.13,2.413,1.254,5.123,0.347,7.629c-0.181,0.5-0.409,0.973-0.661,1.431c-0.23,0.341-0.448,0.687-0.652,1.038
	c-0.979,1.351-2.286,2.443-3.838,3.17C157.99,63.787,155.277,63.909,152.775,63.002z M39.893,235.106
	c-5.502,0-9.978-4.476-9.978-9.977c0-5.501,4.476-9.978,9.978-9.978c4.373,0,8.089,2.832,9.434,6.754
	c0.038,0.135,0.09,0.27,0.133,0.405c0.264,0.895,0.412,1.839,0.412,2.819C49.87,230.63,45.394,235.106,39.893,235.106z
	 M137.219,234.88c-21.431-13.717-46.107-19.586-71.375-16.976c-0.367,0.037-0.414-0.024-0.518-0.16
	c-0.043-0.056-0.074-0.116-0.102-0.174c-0.033-0.111-0.063-0.224-0.098-0.334c-0.008-0.074-0.008-0.135,0.003-0.164
	c0.001,0,0.045-0.079,0.232-0.208c23.871-16.735,51.951-25.978,81.2-26.731c29.95-0.787,59.138,7.518,84.364,23.972
	c19.994,13.04,36.618,30.956,48.076,51.811c2.188,3.983,7.191,5.441,11.177,3.25c3.983-2.188,5.439-7.192,3.25-11.177
	c-12.755-23.217-31.258-43.161-53.509-57.673c-10.562-6.889-21.749-12.488-33.369-16.749c1.58-7.255,2.54-14.802,2.853-22.535
	c1.353-33.522-9.575-66.285-30.773-92.253c-0.174-0.213-0.376-0.469-0.241-0.858c0.121-0.188,0.258-0.364,0.374-0.555
	c0.336-0.309,0.629-0.193,0.91-0.077c62.052,25.56,95.651,62.166,108.119,118.117c-5.178,2.168-10.276,4.568-15.272,7.202
	c-4.021,2.12-5.561,7.099-3.441,11.119c2.12,4.02,7.098,5.564,11.119,3.441c48.332-25.485,106.939-27.181,156.781-4.527
	c0.353,0.16,1.43,0.65,1.16,2.185c-0.272,1.557-1.468,1.653-1.86,1.683c-29.865,2.374-58.289,15.07-80.039,35.75
	c-12.539,11.923-21.932,25.469-27.976,40.309c-33.276,12.427-59.909,38.963-72.748,72.317
	c-13.785-35.808-43.469-63.761-80.199-74.829C168.104,261.837,154.994,246.26,137.219,234.88z M26.439,380.735
	c-5.502,0-9.978-4.476-9.978-9.977c0-5.501,4.476-9.978,9.978-9.978s9.977,4.476,9.977,9.978
	C36.416,376.26,31.94,380.735,26.439,380.735z M91.003,337.44c-16.562,0-32.601,4.791-46.385,13.857
	c-0.061,0.039-0.103,0.061-0.114,0.071c-0.151-0.046-0.387-0.261-0.42-0.343c0,0,0.009-0.054,0.065-0.167
	c8.828-17.736,22.384-32.679,39.202-43.217c17.021-10.664,36.656-16.287,56.844-16.287c0.308,0,0.618,0.001,0.928,0.003
	c56.885,0.485,103.473,46.394,106.156,103.386c-0.07,1.723-0.115,3.453-0.115,5.193v13.809H166.4
	c-1.483-19.731-8.295-37.615-19.555-51.02C132.947,346.184,113.638,337.44,91.003,337.44z M364.04,433.729v31.118
	c0,1.942-1.58,3.523-3.523,3.523H150.172c-1.942,0-3.523-1.58-3.523-3.523v-31.118c0-1.942,1.58-3.523,3.523-3.523h8.304h96.916
	h0.241h96.659h8.225C362.46,430.207,364.04,431.786,364.04,433.729z M466.562,351.379c-0.001,0-0.052-0.015-0.155-0.083
	c-13.785-9.064-29.824-13.855-46.386-13.855c-22.642,0-41.991,8.737-55.955,25.268c-11.341,13.425-18.203,31.316-19.696,51.037
	h-80.507v-13.809c0-1.74-0.045-3.47-0.115-5.193c2.683-56.992,49.269-102.901,106.156-103.386
	c20.536-0.181,40.49,5.456,57.771,16.283c16.817,10.538,30.374,25.481,39.203,43.217c0.036,0.075,0.054,0.123,0.061,0.133
	c-0.023,0.058-0.078,0.126-0.138,0.191c-0.02,0.02-0.038,0.041-0.058,0.06C466.67,351.311,466.597,351.367,466.562,351.379z
	 M485.562,379.766c-5.502,0-9.978-4.476-9.978-9.977c0-2.747,1.116-5.238,2.918-7.044c0.009-0.009,0.02-0.018,0.029-0.027
	c1.805-1.795,4.291-2.907,7.032-2.907c5.502,0,9.978,4.476,9.978,9.978C495.54,375.291,491.063,379.766,485.562,379.766z"/>
<circle cx="170.883" cy="449.286" r="8.23"/>
<circle cx="203.969" cy="449.286" r="8.23"/>
<circle cx="237.055" cy="449.286" r="8.23"/>
<circle cx="270.141" cy="449.286" r="8.23"/>
<circle cx="303.227" cy="449.286" r="8.23"/>
<circle cx="336.313" cy="449.286" r="8.23"/>
</svg>